<svg width="16" height="17" viewBox="0 0 16 17" fill="none" xmlns="http://www.w3.org/2000/svg">
<path d="M13.3538 6.85403L8.35378 11.854C8.30735 11.9005 8.2522 11.9374 8.1915 11.9626C8.13081 11.9877 8.06574 12.0007 8.00003 12.0007C7.93433 12.0007 7.86926 11.9877 7.80856 11.9626C7.74786 11.9374 7.69272 11.9005 7.64628 11.854L2.64628 6.85403C2.55246 6.76021 2.49976 6.63296 2.49976 6.50028C2.49976 6.3676 2.55246 6.24035 2.64628 6.14653C2.7401 6.05271 2.86735 6 3.00003 6C3.13272 6 3.25996 6.05271 3.35378 6.14653L8.00003 10.7934L12.6463 6.14653C12.6927 6.10007 12.7479 6.06322 12.8086 6.03808C12.8693 6.01294 12.9343 6 13 6C13.0657 6 13.1308 6.01294 13.1915 6.03808C13.2522 6.06322 13.3073 6.10007 13.3538 6.14653C13.4002 6.19298 13.4371 6.24813 13.4622 6.30883C13.4874 6.36953 13.5003 6.43458 13.5003 6.50028C13.5003 6.56598 13.4874 6.63103 13.4622 6.69173C13.4371 6.75242 13.4002 6.80757 13.3538 6.85403Z" fill="black"/>
</svg>
